<svg width="46" height="49" viewBox="0 0 46 49" fill="none" xmlns="http://www.w3.org/2000/svg">
<rect y="0.939453" width="46" height="48.0342" fill="#81B3D2"/>
<path d="M25.95 18.0956C27.635 17.5993 28.934 18.3658 29.527 19.2755C30.2 19.0443 30.858 18.7941 31.538 18.567C31.5249 19.2539 31.2117 19.9005 30.681 20.3363C31.366 20.5064 31.985 19.8449 31.985 19.8449C31.816 20.8457 30.979 21.6343 30.422 21.8704C30.191 28.6255 27.247 33.0958 20.345 32.9607H19.899C19.489 32.9607 15.735 32.5004 15.001 31.0723C17.272 31.2685 18.894 30.65 19.694 29.8944C18.734 29.5942 17.015 29.4171 16.715 26.9422C17.064 27.0483 17.279 27.1704 17.905 27.0613C16.705 26.2047 15.374 25.4871 15.448 23.2855C15.733 23.6137 16.515 23.8219 16.788 23.7578C16.085 23.5167 14.818 20.3953 15.894 18.8021C17.712 20.6575 19.629 22.4108 23.046 22.578C23.254 20.2833 24.183 18.7451 25.95 18.0956Z" fill="white"/>
</svg>
